<?xml version="1.0" standalone="no"?><!DOCTYPE svg PUBLIC "-//W3C//DTD SVG 1.1//EN" "http://www.w3.org/Graphics/SVG/1.1/DTD/svg11.dtd"><svg t="1544767904915" class="icon" style="" viewBox="0 0 1024 1024" version="1.1" xmlns="http://www.w3.org/2000/svg" p-id="2100" xmlns:xlink="http://www.w3.org/1999/xlink" width="200" height="200"><defs><style type="text/css"></style></defs><path d="M212.992 526.336 212.992 526.336 212.992 526.336 215.04 526.336 212.992 526.336Z" p-id="2101" fill="#fdfdfd"></path><path d="M233.472 346.112 233.472 346.112l542.72 0 0 0 49.152 0 0-90.112L182.272 256l0 90.112L233.472 346.112 233.472 346.112 233.472 346.112zM348.16 73.728 348.16 73.728 348.16 73.728l311.296 0c18.432 0 34.816 14.336 34.816 32.768l0 0 0 79.872 165.888 0c18.432 0 34.816 14.336 34.816 32.768l0 0 0 157.696c0 18.432-14.336 32.768-34.816 32.768l0 0-49.152 0 0 499.712c0 18.432-14.336 32.768-34.816 32.768l0 0L233.472 942.08c-18.432 0-32.768-14.336-32.768-32.768l0 0L200.704 413.696 149.504 413.696c-18.432 0-32.768-14.336-32.768-32.768l0 0 0-157.696c0-18.432 14.336-32.768 32.768-32.768l0 0 163.84 0 0-81.92C315.392 88.064 329.728 73.728 348.16 73.728L348.16 73.728zM626.688 139.264 626.688 139.264 382.976 139.264l0 43.008 243.712 0L626.688 139.264 626.688 139.264zM385.024 413.696 385.024 413.696l0 389.12c0 10.24-10.24 20.48-20.48 20.48-10.24 0-20.48-8.192-20.48-20.48l0-389.12L266.24 413.696l0 464.896 475.136 0L741.376 413.696l-77.824 0 0 389.12c0 10.24-8.192 20.48-20.48 20.48-10.24 0-20.48-8.192-20.48-20.48l0-389.12-100.352 0 0 389.12c0 10.24-8.192 20.48-20.48 20.48-12.288 0-20.48-8.192-20.48-20.48l0-389.12L385.024 413.696 385.024 413.696z" p-id="2102" fill="#fdfdfd"></path></svg>