<?xml version="1.0" standalone="no"?><!DOCTYPE svg PUBLIC "-//W3C//DTD SVG 1.1//EN" "http://www.w3.org/Graphics/SVG/1.1/DTD/svg11.dtd"><svg t="1544713484753" class="icon" style="" viewBox="0 0 1024 1024" version="1.1" xmlns="http://www.w3.org/2000/svg" p-id="2004" xmlns:xlink="http://www.w3.org/1999/xlink" width="200" height="200"><defs><style type="text/css"></style></defs><path d="M285.696 180.224q21.504 0 40.96 8.192t33.792 22.528 22.528 33.792 8.192 41.984q0 21.504-8.192 40.448t-22.528 33.28-33.792 22.528-40.96 8.192-40.96-8.192-33.792-22.528-22.528-33.28-8.192-40.448q0-22.528 8.192-41.984t22.528-33.792 33.792-22.528 40.96-8.192zM963.584 0q24.576 0 42.496 17.92t17.92 41.472l0 905.216q0 23.552-17.92 41.472t-42.496 17.92l-904.192 0q-24.576 0-41.984-17.92t-17.408-41.472l0-905.216q0-23.552 17.408-41.472t41.984-17.92l904.192 0zM932.864 151.552q0-25.6-17.408-43.52t-43.008-17.92l-721.92 0q-25.6 0-43.008 17.92t-17.408 43.52l0 360.448q0 29.696 14.848 56.32t42.496 47.616 66.56 33.28 87.04 13.312q68.608 1.024 111.104-18.432t73.728-49.152 58.368-64.512 64.512-65.536 92.16-51.712 141.824-22.016q15.36-1.024 17.92-0.512t6.656 0.512 16.896 0.512 48.64-0.512l0-239.616z" p-id="2005" fill="#fdfdfd"></path></svg>